<svg width="69" height="69" viewBox="0 0 69 69" fill="none" xmlns="http://www.w3.org/2000/svg">
<path d="M46.5166 31.0032H22.7779C20.33 31.0032 18.4515 30.0354 17.5976 28.3845C16.7437 26.7052 17.0851 24.6273 18.5083 22.6633L30.3777 6.04056C32.484 3.02342 36.8389 3.02342 38.9737 6.06903L50.8431 22.6633C52.2663 24.6273 52.6078 26.7052 51.7539 28.3845C50.8431 30.0354 48.9645 31.0032 46.5166 31.0032ZM34.6473 7.91915C34.3911 7.91915 34.1065 8.14687 33.8503 8.48844L21.9809 25.1397C21.4116 25.9082 21.3832 26.3636 21.4117 26.449C21.4401 26.5059 21.8386 26.7336 22.8064 26.7336H46.545C47.4843 26.7336 47.8829 26.4774 47.9398 26.4205C47.9398 26.3636 47.9113 25.9082 47.3705 25.1397L35.5011 8.51691C35.188 8.11842 34.9034 7.91915 34.6473 7.91915Z" fill="#132B39"/>
<path d="M50.5584 53.6041H18.7645C14.6942 53.6041 13.0717 51.6401 12.474 50.4731C11.8762 49.3061 11.25 46.8582 13.641 43.5564L24.998 27.6168C25.3965 27.0475 26.0512 26.7344 26.7343 26.7344H42.5886C43.2717 26.7344 43.9263 27.076 44.3248 27.6168L55.6819 43.5849C58.0728 46.8582 57.4181 49.3061 56.8204 50.4731C56.2227 51.6401 54.6287 53.6041 50.5584 53.6041ZM27.8159 31.0039L17.0851 46.0612C16.1742 47.3136 16.0889 48.1675 16.2597 48.5375C16.4589 48.9076 17.199 49.3345 18.736 49.3345H50.5299C52.0669 49.3345 52.8355 48.9076 53.0063 48.5375C53.2055 48.1675 53.0916 47.3136 52.1808 46.0612L41.45 30.9755H27.8159V31.0039Z" fill="#132B39"/>
<path d="M34.6465 64.9909C33.4795 64.9909 32.5117 64.0232 32.5117 62.8562V51.4707C32.5117 50.3037 33.4795 49.3359 34.6465 49.3359C35.8135 49.3359 36.7813 50.3037 36.7813 51.4707V62.8562C36.7813 64.0232 35.8135 64.9909 34.6465 64.9909Z" fill="#132B39"/>
</svg>
