<svg width="203" height="60" viewBox="0 0 203 60" fill="none" xmlns="http://www.w3.org/2000/svg">
<path d="M101.352 58.6341C70.0432 58.6341 38.7369 58.6341 7.42814 58.6388C5.61443 58.6388 4.09597 58.0085 2.89386 56.6517C2.05731 55.7074 1.59334 54.5943 1.49961 53.3359C1.4832 53.1157 1.4832 52.8931 1.4832 52.6728C1.4832 37.5562 1.48555 22.442 1.47852 7.3254C1.47852 5.52341 2.09715 4.01198 3.43985 2.80987C4.38889 1.95926 5.50898 1.4906 6.77904 1.38984C7.05087 1.36875 7.32737 1.3664 7.60154 1.3664C70.1229 1.3664 132.642 1.3664 195.163 1.35938C196.614 1.35938 197.938 1.68509 199.081 2.60601C200.447 3.70267 201.228 5.12739 201.258 6.88017C201.305 9.52809 201.275 12.176 201.275 14.8239C201.275 27.4496 201.272 40.0776 201.282 52.7033C201.282 54.1045 200.914 55.3676 200.033 56.4596C198.99 57.7554 197.636 58.4865 195.972 58.6201C195.709 58.6412 195.445 58.6365 195.182 58.6365C163.906 58.6365 132.63 58.6365 101.354 58.6365L101.352 58.6341ZM50.4861 37.4578C47.4375 35.9464 45.591 33.6312 45.3707 30.21C45.1505 26.7888 46.7345 24.2744 49.4598 22.374C47.4141 19.2528 43.3157 18.0178 40.171 18.7888C38.9407 19.0911 37.748 19.5691 36.5623 20.0307C35.5945 20.4057 34.6642 20.4431 33.7082 20.0401C33.1739 19.8151 32.6279 19.6207 32.0913 19.4027C30.5471 18.7771 28.9653 18.4654 27.3039 18.8286C23.9343 19.5691 21.6472 21.6078 20.3139 24.7431C19.2922 27.145 19.1446 29.671 19.4445 32.2276C19.8406 35.6113 20.9161 38.7771 22.6619 41.6992C23.6742 43.3934 24.8083 45.0102 26.2963 46.3365C27.3813 47.3043 28.6256 47.855 30.0948 47.5129C30.929 47.3184 31.7445 47.0137 32.5412 46.6904C33.9144 46.135 35.318 45.9335 36.7826 46.142C37.7457 46.2779 38.6174 46.6857 39.5008 47.0536C40.4639 47.4543 41.4574 47.6417 42.4978 47.5035C43.6578 47.3512 44.6138 46.7724 45.3918 45.9405C47.2899 43.9183 48.7849 41.6195 49.8769 39.0676C50.1018 38.5381 50.2846 37.9921 50.4861 37.4578ZM83.4 32.886V53.0829H86.6338V45.6781C87.1961 46.4256 87.8687 46.9856 88.7334 47.2785C90.8259 47.9839 93.68 47.6769 95.5523 45.275C96.4826 44.0823 96.9489 42.7138 97.1036 41.2282C97.2793 39.5386 97.2114 37.8655 96.5061 36.2932C95.5008 34.053 93.8605 32.64 91.2899 32.5908C89.2653 32.5509 87.6086 33.282 86.4604 35.0114C86.4322 35.0559 86.383 35.084 86.308 35.152C86.2448 34.3717 86.1838 33.6382 86.1229 32.8907H83.4V32.886ZM103.206 45.6968C103.819 46.4959 104.562 47.0559 105.502 47.3465C108.021 48.1221 110.716 47.2176 112.269 45.0782C113.15 43.8644 113.57 42.4888 113.694 41.0149C113.83 39.4121 113.755 37.821 113.09 36.3283C112.08 34.06 110.435 32.633 107.836 32.5884C105.795 32.5533 104.14 33.3055 102.999 35.0512C102.981 35.0794 102.943 35.0981 102.875 35.1543C102.812 34.3717 102.751 33.6335 102.69 32.8954H99.9601V53.0829H103.206V45.6992V45.6968ZM80.649 47.2762C80.6232 47.1707 80.6092 47.0887 80.5834 47.0114C78.4861 40.5205 76.3865 34.0296 74.2916 27.5386C74.2354 27.3629 74.1557 27.2902 73.9612 27.2926C72.8013 27.302 71.6414 27.302 70.4814 27.2926C70.2799 27.2926 70.2143 27.3723 70.1581 27.548C68.0702 34.0413 65.9776 40.5345 63.8874 47.0278C63.864 47.1004 63.8616 47.1801 63.8452 47.2668H67.1141C67.1493 47.1661 67.1844 47.0676 67.2149 46.9692C67.7445 45.2258 68.2764 43.4847 68.7943 41.739C68.8693 41.4883 68.97 41.3945 69.2442 41.3945C71.0368 41.4086 72.8294 41.4016 74.622 41.4016C75.136 41.4016 75.4711 41.6484 75.6273 42.142C76.1452 43.7659 76.6607 45.3922 77.1879 47.0137C77.2208 47.1168 77.3449 47.2621 77.4293 47.2645C78.4932 47.2809 79.557 47.2762 80.6467 47.2762H80.649ZM120.621 43.6582C120.401 44.4502 120.213 45.2047 119.979 45.9452C119.883 46.2498 119.953 46.3857 120.225 46.5287C121.53 47.2223 122.936 47.4847 124.394 47.5457C125.839 47.6043 127.264 47.5082 128.619 46.9575C130.573 46.1608 131.871 44.7829 132.194 42.6482C132.534 40.4033 131.834 38.5568 129.95 37.2094C128.972 36.5111 127.885 36.0331 126.784 35.5761C125.907 35.2129 125.038 34.8286 124.312 34.1959C122.955 33.0079 123.182 30.9341 124.785 30.1163C125.225 29.8913 125.734 29.7484 126.226 29.6968C127.735 29.5351 129.186 29.7929 130.552 30.4748C130.603 30.5006 130.664 30.5099 130.732 30.5287C130.997 29.6663 131.257 28.8228 131.524 27.9511C131.311 27.8526 131.119 27.7495 130.915 27.6722C129.033 26.9598 127.091 26.8357 125.127 27.1778C123.501 27.4613 122.13 28.2299 121.148 29.5937C119.88 31.3582 119.578 34.5709 122.369 36.6705C123.391 37.4391 124.534 37.9639 125.718 38.4185C126.587 38.7513 127.433 39.1309 128.131 39.7683C129.673 41.1789 129.279 43.6371 127.377 44.497C126.357 44.9563 125.284 44.9446 124.208 44.8415C122.943 44.722 121.762 44.3166 120.621 43.6558V43.6582ZM158.784 39.9839C158.746 39.5316 158.727 39.0794 158.669 38.6294C158.203 34.9505 155.548 32.5955 151.85 32.5861C148.911 32.5791 146.709 33.8116 145.415 36.4924C144.607 38.1702 144.501 39.9604 144.785 41.7765C145.05 43.4707 145.809 44.9118 147.102 46.0483C148.487 47.2645 150.153 47.6582 151.948 47.5879C154.432 47.4894 156.382 46.4396 157.678 44.2815C158.47 42.9622 158.751 41.5047 158.784 39.9815V39.9839ZM173.797 40.8368H174.191C177.143 40.8368 180.096 40.8368 183.049 40.8368C183.236 40.8368 183.388 40.8509 183.416 40.5814C183.55 39.3207 183.513 38.0717 183.145 36.8532C182.592 35.0184 181.57 33.5492 179.679 32.9095C177.188 32.0659 173.725 32.4736 171.815 35.7941C170.549 37.9944 170.371 40.3588 171.018 42.7677C171.644 45.0969 173.183 46.6013 175.517 47.2504C176.848 47.6207 178.207 47.5902 179.566 47.4426C180.565 47.3348 181.542 47.1215 182.467 46.7232C182.549 46.688 182.648 46.5381 182.631 46.4631C182.496 45.7929 182.336 45.1297 182.179 44.4408C182.064 44.4783 181.968 44.5111 181.87 44.5416C180.326 45.043 178.746 45.2774 177.136 44.9938C174.746 44.5744 173.746 42.6974 173.795 40.8368H173.797ZM142.641 44.8251C142.167 44.8626 141.72 44.9188 141.27 44.9259C140.363 44.9399 139.782 44.5299 139.545 43.6511C139.421 43.1895 139.367 42.6974 139.363 42.217C139.344 40.0143 139.353 37.8093 139.355 35.6043C139.355 35.5011 139.365 35.398 139.37 35.2598H142.854V32.8509H139.346V29.2844C138.374 29.5773 137.45 29.8632 136.52 30.128C136.276 30.1983 136.187 30.2967 136.194 30.5591C136.215 31.3137 136.201 32.0706 136.201 32.8626H134.13V35.2739H136.201C136.201 35.4215 136.201 35.5457 136.201 35.6699C136.201 37.896 136.187 40.1198 136.211 42.3459C136.218 43.0583 136.274 43.78 136.396 44.483C136.633 45.8562 137.352 46.8966 138.73 47.3301C139.993 47.7284 141.272 47.6043 142.533 47.2692C142.608 47.2504 142.711 47.1356 142.709 47.0653C142.697 46.3178 142.664 45.5726 142.638 44.8251H142.641ZM161.528 32.8884V47.2528H164.75V46.8497C164.75 44.5299 164.738 42.21 164.759 39.8878C164.764 39.3348 164.811 38.763 164.947 38.2311C165.284 36.9188 166.022 35.9253 167.44 35.6792C167.991 35.5832 168.569 35.6628 169.148 35.6628V32.6259C166.746 32.3471 165.296 33.5304 164.37 35.5996C164.328 34.6997 164.286 33.7999 164.244 32.886H161.528V32.8884ZM63.4914 19.8878C63.5359 19.9018 63.5664 19.9183 63.5945 19.9183C65.113 19.9042 66.6338 19.9347 68.1475 19.8597C69.4785 19.7941 70.608 19.2434 71.2993 18.0436C72.328 16.2557 72.3889 14.3506 71.8359 12.415C71.4609 11.1004 70.6666 10.0928 69.3121 9.67806C68.7872 9.51638 68.2155 9.45311 67.6648 9.43905C66.3479 9.4039 65.0286 9.42264 63.7093 9.42264C63.639 9.42264 63.5687 9.43436 63.4914 9.44139V19.8901V19.8878ZM42.4791 9.35938C38.5541 9.23987 33.9331 14.5873 34.8751 18.1327C39.1235 18.4256 42.9806 13.8093 42.4791 9.35938ZM85.8066 19.1801C86.0479 19.3746 86.2307 19.5527 86.4416 19.6792C86.6642 19.8128 86.9079 19.93 87.1587 19.9979C88.3936 20.326 89.8394 19.7331 90.4885 18.5545C91.3813 16.9352 91.386 15.2574 90.5283 13.6242C89.6144 11.8831 86.9571 11.5808 85.8277 13.1297C85.8066 13.1579 85.7714 13.1766 85.7011 13.2328V12.3307H84.5529V22.8169H85.8089V19.1801H85.8066ZM145.176 14.6435C145.225 14.5076 145.268 14.4021 145.305 14.292C145.53 13.6265 146.008 13.2867 146.695 13.2328C146.988 13.2094 147.285 13.2071 147.578 13.2305C148.567 13.3031 149.01 13.7999 149.01 14.7888C149.01 15.0137 148.949 15.1403 148.715 15.1801C148.103 15.2832 147.494 15.4074 146.88 15.5058C146.142 15.623 145.387 15.6605 144.733 16.0823C143.93 16.6002 143.604 17.3523 143.742 18.2779C143.871 19.1426 144.403 19.7097 145.24 19.937C146.395 20.251 147.496 20.094 148.506 19.4308C148.703 19.302 148.89 19.1614 149.087 19.0208C149.162 19.2832 149.218 19.5175 149.303 19.7448C149.329 19.8175 149.422 19.9112 149.488 19.9136C149.882 19.93 150.275 19.9206 150.727 19.9206C150.317 19.2129 150.329 18.4912 150.32 17.7765C150.308 16.8392 150.317 15.8995 150.308 14.9622C150.306 14.6248 150.296 14.2873 150.256 13.9522C150.172 13.2492 149.814 12.7431 149.153 12.4525C148.351 12.0987 147.508 12.0799 146.669 12.1877C146.167 12.2533 145.654 12.4033 145.195 12.6166C144.436 12.9727 144.096 13.6617 143.948 14.4795C144.384 14.5357 144.778 14.5873 145.179 14.6412L145.176 14.6435ZM121.399 16.4408H127.02C127.034 16.333 127.056 16.251 127.051 16.169C127.02 15.7706 127.011 15.3676 126.945 14.9739C126.671 13.3664 125.432 12.2252 123.909 12.1502C122.053 12.0612 120.71 12.9751 120.237 14.6388C120.04 15.3301 120.009 16.0331 120.063 16.7384C120.194 18.4467 121.136 19.6183 122.648 19.9721C123.304 20.1245 123.967 20.1245 124.626 19.9862C125.825 19.7331 126.824 18.7302 126.969 17.6265C126.545 17.5726 126.123 17.5211 125.706 17.4672C124.937 18.8567 124.204 19.2598 123.053 18.9411C122.046 18.6622 121.357 17.6406 121.397 16.4408H121.399ZM92.1592 16.2088C92.253 16.6962 92.3069 17.3149 92.4967 17.8866C93.0028 19.4168 94.4791 20.319 96.4029 20.0331C97.516 19.869 98.4369 19.3254 98.9056 18.2709C99.5242 16.8837 99.55 15.4355 98.936 14.0389C98.3221 12.6423 96.7685 11.9136 95.1657 12.183C93.6824 12.4314 92.6888 13.3336 92.3608 14.7724C92.2623 15.2012 92.2366 15.6464 92.1616 16.2112L92.1592 16.2088ZM82.69 14.2686C82.5846 13.5586 82.3455 12.9423 81.7011 12.6119C80.485 11.9886 79.2243 11.9347 77.9917 12.5369C77.2137 12.9165 76.8388 13.6054 76.8997 14.4818C76.956 15.2996 77.4059 15.8456 78.1628 16.1409C78.4768 16.2627 78.7978 16.3635 79.1212 16.4596C79.7656 16.6517 80.424 16.8087 81.0591 17.0313C81.7035 17.2563 81.8745 17.9405 81.427 18.4607C81.27 18.6435 81.045 18.8075 80.8177 18.8872C80.2249 19.0934 79.6156 19.0864 79.0181 18.8825C78.5119 18.7091 78.2026 18.3412 78.0386 17.8421C78.0011 17.7249 77.973 17.6031 77.9308 17.4508C77.5113 17.5187 77.1059 17.5843 76.6771 17.6523C76.8904 18.7302 77.3824 19.5269 78.4276 19.8714C79.1727 20.1174 79.939 20.1385 80.7099 20.0167C81.3848 19.9089 81.98 19.6417 82.444 19.1215C83.2618 18.2053 83.3086 16.3846 81.6379 15.8269C81.3778 15.7402 81.12 15.6464 80.8575 15.5691C80.1897 15.3746 79.5195 15.1965 78.854 14.9927C78.3455 14.8357 78.0948 14.4959 78.151 14.0764C78.2049 13.6734 78.4791 13.4437 78.8376 13.3289C79.3696 13.1579 79.9179 13.1461 80.4592 13.2891C80.9349 13.4156 81.2395 13.7273 81.3871 14.1959C81.4106 14.2733 81.4387 14.3506 81.4691 14.4396C81.8816 14.3811 82.2752 14.3272 82.6923 14.2686H82.69ZM105.755 19.9206C106.139 19.9206 106.477 19.9136 106.812 19.9229C106.995 19.93 107.049 19.8573 107.049 19.6816C107.034 17.889 107.058 16.094 107.006 14.3037C106.978 13.3523 106.498 12.654 105.554 12.326C104.522 11.9675 103.02 12.0471 102.153 13.2141C102.13 13.2469 102.125 13.2938 102.114 13.3359C102.081 13.3172 102.05 13.3008 102.017 13.282V12.333H100.9V19.9042H102.153V19.548C102.153 18.3342 102.149 17.1227 102.156 15.9089C102.156 15.5925 102.177 15.2762 102.217 14.9622C102.35 13.8772 103.161 13.1977 104.239 13.2539C105.268 13.3078 105.741 13.8819 105.757 15.1028C105.757 15.2504 105.76 15.398 105.76 15.5457C105.76 16.8743 105.76 18.203 105.76 19.534V19.9206H105.755ZM137.244 19.9065C137.258 19.8503 137.268 19.8315 137.268 19.8105C137.268 18.7443 137.263 17.6804 137.275 16.6142C137.279 16.0565 137.275 15.4941 137.34 14.9411C137.464 13.889 138.182 13.275 139.245 13.2516C140.143 13.2328 140.729 13.732 140.829 14.6201C140.86 14.8919 140.874 15.1661 140.876 15.4402C140.881 16.811 140.876 18.1819 140.876 19.5527V19.8995H142.123C142.123 17.9827 142.144 16.0846 142.109 14.1889C142.097 13.6007 141.842 13.0571 141.345 12.6845C140.321 11.9183 138.343 11.848 137.333 13.1321C137.286 13.1907 137.261 13.268 137.225 13.3359L137.125 13.2633V12.3307H136.009V19.9042H137.244V19.9065ZM115.822 18.3108C115.133 16.3705 114.46 14.4771 113.781 12.5837C113.746 12.4853 113.666 12.3283 113.6 12.3236C113.186 12.3002 112.771 12.3119 112.33 12.3119C112.384 12.4549 112.415 12.5439 112.447 12.6306C113.263 14.7771 114.078 16.9212 114.894 19.0676C115.222 19.93 115.222 19.9206 116.136 19.9253C116.349 19.9253 116.445 19.862 116.522 19.6581C117.411 17.2914 118.308 14.9294 119.203 12.5673C119.231 12.4947 119.245 12.415 119.276 12.3049C118.908 12.3049 118.57 12.3166 118.235 12.3002C118.029 12.2885 117.947 12.3728 117.879 12.5603C117.272 14.2569 116.656 15.9464 116.044 17.6406C115.967 17.8538 115.901 18.0741 115.822 18.3084V18.3108ZM128.628 9.4367V19.8995H129.882V9.4367H128.628ZM75.1915 19.9018V12.326H73.9378V19.9018H75.1915ZM110.742 19.9065V12.333H109.509V19.9065H110.742ZM109.436 11.3277C110.06 11.4238 110.603 11.4519 110.927 10.8122C111.03 10.6107 111.206 10.4443 111.348 10.2639C111.571 9.98035 111.796 9.69447 112.058 9.35938C111.491 9.35938 110.999 9.35235 110.51 9.36641C110.439 9.36641 110.339 9.44373 110.306 9.51169C110.013 10.1045 109.734 10.7021 109.436 11.3277ZM73.9378 10.8685H75.1938V9.4367H73.9378V10.8685Z" fill="black"/>
<path d="M50.4868 37.4546C50.2853 37.9889 50.1025 38.5372 49.8775 39.0644C48.7879 41.6186 47.2929 43.9151 45.3925 45.9373C44.6122 46.7668 43.6585 47.348 42.4985 47.5003C41.4604 47.6362 40.4645 47.4511 39.5015 47.0504C38.618 46.6825 37.7463 46.2771 36.7832 46.1388C35.3187 45.9303 33.915 46.1318 32.5419 46.6872C31.7452 47.0105 30.9297 47.3152 30.0955 47.5097C28.6262 47.8518 27.3796 47.3011 26.297 46.3333C24.809 45.007 23.6749 43.3902 22.6626 41.696C20.9168 38.7739 19.8412 35.6057 19.4452 32.2244C19.1476 29.6678 19.2929 27.1418 20.3146 24.7399C21.6479 21.6069 23.935 19.5659 27.3046 18.8254C28.966 18.4599 30.5477 18.7739 32.092 19.3995C32.6286 19.6175 33.1746 19.812 33.7088 20.0369C34.6649 20.4376 35.5952 20.4025 36.563 20.0275C37.7487 19.5659 38.9391 19.0879 40.1716 18.7856C43.3187 18.0146 47.4148 19.2496 49.4604 22.3708C46.7352 24.2712 45.1511 26.7856 45.3714 30.2068C45.5917 33.628 47.4382 35.9432 50.4868 37.4546Z" fill="white"/>
<path d="M83.4004 32.8873H86.1233C86.1842 33.6371 86.2451 34.3682 86.3084 35.1485C86.3834 35.0806 86.4326 35.0525 86.4607 35.0079C87.6089 33.2786 89.2633 32.5498 91.2903 32.5873C93.8608 32.6365 95.4988 34.0495 96.5064 36.2897C97.2118 37.8621 97.2797 39.5352 97.104 41.2247C96.9493 42.7103 96.483 44.0812 95.5527 45.2715C93.6804 47.6734 90.8239 47.9804 88.7337 47.2751C87.8691 46.9845 87.1965 46.4244 86.6341 45.6746V53.0794H83.4004V32.8826V32.8873ZM86.5498 40.2241C86.5802 40.2264 86.6107 40.2311 86.6412 40.2335C86.6412 40.6974 86.6271 41.1614 86.6412 41.6254C86.7161 43.8796 88.5955 45.4075 90.8005 45.0185C92.169 44.7771 92.9845 43.8937 93.4625 42.6658C94.0038 41.2739 94.0507 39.8304 93.7437 38.3752C93.5281 37.3489 93.0899 36.435 92.2323 35.7836C90.3225 34.3284 87.473 35.3547 86.8521 37.759C86.6459 38.5533 86.6435 39.3993 86.5498 40.2218V40.2241Z" fill="white"/>
<path d="M103.205 45.6978V53.0815H99.96V32.8941H102.69C102.751 33.6322 102.812 34.3704 102.875 35.153C102.943 35.0991 102.98 35.0804 102.999 35.0499C104.14 33.3042 105.795 32.552 107.836 32.5871C110.434 32.6316 112.079 34.0587 113.089 36.327C113.755 37.8197 113.828 39.4108 113.694 41.0136C113.57 42.4875 113.148 43.8654 112.269 45.0769C110.716 47.2163 108.021 48.1208 105.502 47.3452C104.56 47.0546 103.819 46.4946 103.205 45.6955V45.6978ZM103.109 40.238C103.144 40.2403 103.182 40.245 103.217 40.2473C103.217 40.7629 103.191 41.2807 103.222 41.7963C103.309 43.2608 104.351 44.5965 105.657 44.9433C107.501 45.4354 109.157 44.6832 109.917 42.9117C110.702 41.0792 110.713 39.1999 109.973 37.344C109.591 36.3879 108.93 35.6639 107.927 35.3147C106.022 34.6516 103.937 35.7435 103.426 37.7424C103.219 38.5484 103.21 39.4014 103.109 40.2333V40.238Z" fill="white"/>
<path d="M80.6491 47.2727C79.5594 47.2727 78.4956 47.2774 77.4317 47.261C77.3474 47.261 77.2232 47.1134 77.1904 47.0103C76.6631 45.3887 76.1453 43.7625 75.6297 42.1386C75.4735 41.6449 75.1384 41.3981 74.6245 41.3981C72.8318 41.3981 71.0392 41.4051 69.2466 41.391C68.9701 41.391 68.8693 41.4824 68.7967 41.7355C68.2788 43.4813 67.7469 45.2223 67.2173 46.9657C67.1868 47.0642 67.1517 47.1626 67.1166 47.2633H63.8477C63.8617 47.1766 63.8664 47.097 63.8898 47.0243C65.9801 40.5311 68.075 34.0378 70.1605 27.5445C70.2167 27.3688 70.28 27.2868 70.4839 27.2891C71.6438 27.2985 72.8037 27.2985 73.9637 27.2891C74.1581 27.2891 74.2378 27.3594 74.2941 27.5352C76.389 34.0261 78.4885 40.517 80.5858 47.0079C80.6116 47.0852 80.6256 47.1673 80.6514 47.2727H80.6491ZM74.7791 38.9236C73.8652 35.9335 72.9631 32.9763 72.1078 30.1737C71.2782 32.988 70.4065 35.9523 69.5325 38.9236H74.7791Z" fill="white"/>
<path d="M120.621 43.6529C121.763 44.3137 122.941 44.7167 124.209 44.8386C125.287 44.9417 126.36 44.9534 127.377 44.4941C129.28 43.6364 129.673 41.1783 128.132 39.7653C127.436 39.128 126.587 38.7483 125.718 38.4156C124.535 37.9633 123.391 37.4384 122.369 36.6675C119.579 34.5679 119.881 31.3553 121.149 29.5908C122.128 28.227 123.501 27.4584 125.127 27.1748C127.091 26.8327 129.034 26.9569 130.915 27.6693C131.119 27.7466 131.311 27.8497 131.525 27.9481C131.258 28.8198 130.997 29.6611 130.733 30.5257C130.665 30.5046 130.604 30.4976 130.552 30.4718C129.186 29.7899 127.736 29.5298 126.226 29.6939C125.734 29.7478 125.224 29.8907 124.785 30.1133C123.183 30.9311 122.955 33.0049 124.312 34.193C125.036 34.828 125.905 35.2123 126.784 35.5732C127.886 36.0301 128.973 36.5082 129.95 37.2065C131.834 38.5538 132.537 40.4004 132.195 42.6452C131.871 44.78 130.573 46.1578 128.619 46.9546C127.265 47.5052 125.838 47.6013 124.394 47.5427C122.937 47.4818 121.531 47.2193 120.225 46.5257C119.953 46.3828 119.883 46.2445 119.979 45.9423C120.214 45.2018 120.403 44.4472 120.621 43.6552V43.6529Z" fill="white"/>
<path d="M158.786 39.9814C158.755 41.5046 158.472 42.9597 157.68 44.2814C156.384 46.4395 154.434 47.4893 151.95 47.5877C150.155 47.658 148.492 47.2667 147.104 46.0482C145.811 44.9117 145.052 43.4706 144.787 41.7764C144.503 39.9603 144.609 38.1701 145.417 36.4923C146.708 33.8115 148.913 32.5766 151.852 32.586C155.55 32.5954 158.205 34.9504 158.671 38.6293C158.727 39.0793 158.748 39.5315 158.786 39.9838V39.9814ZM155.442 40.0189C155.442 38.9832 155.271 37.9849 154.814 37.0476C154.369 36.1384 153.769 35.3745 152.756 35.0722C151.358 34.6551 149.703 34.9644 148.799 36.6118C147.634 38.7301 147.615 40.9164 148.585 43.1121C148.921 43.8689 149.448 44.4876 150.207 44.8648C151.643 45.5819 153.324 45.1695 154.291 43.8525C155.13 42.7137 155.444 41.4108 155.444 40.0189H155.442Z" fill="white"/>
<path d="M173.8 40.8355C173.748 42.6961 174.751 44.573 177.141 44.9925C178.754 45.276 180.331 45.0417 181.875 44.5402C181.973 44.5074 182.069 44.477 182.184 44.4395C182.341 45.1284 182.501 45.7915 182.636 46.4617C182.65 46.5367 182.552 46.6867 182.472 46.7218C181.547 47.1202 180.57 47.3334 179.571 47.4412C178.212 47.5865 176.853 47.617 175.522 47.2491C173.188 46.6 171.649 45.0956 171.023 42.7664C170.376 40.3598 170.554 37.9954 171.82 35.7927C173.73 32.4723 177.191 32.0669 179.684 32.9081C181.575 33.5478 182.597 35.0171 183.15 36.8519C183.515 38.0681 183.555 39.3194 183.421 40.5801C183.393 40.8472 183.241 40.8355 183.054 40.8355C180.101 40.8355 177.148 40.8355 174.196 40.8355H173.802H173.8ZM180.471 38.5414C180.413 38.1032 180.399 37.6908 180.3 37.2995C180 36.1208 179.4 35.1764 178.13 34.8742C176.874 34.5742 175.768 34.8507 174.897 35.849C174.418 36.3973 174.088 37.0276 173.919 37.7377C173.858 37.9954 173.819 38.2602 173.767 38.5437H180.474L180.471 38.5414Z" fill="white"/>
<path d="M142.641 44.822C142.667 45.5695 142.698 46.3146 142.712 47.0622C142.712 47.1301 142.609 47.2449 142.536 47.266C141.275 47.6011 139.996 47.7253 138.733 47.3269C137.355 46.8934 136.635 45.853 136.399 44.4798C136.277 43.7769 136.221 43.0575 136.214 42.3428C136.19 40.119 136.204 37.8928 136.204 35.6667C136.204 35.5425 136.204 35.4183 136.204 35.2707H134.133V32.8595H136.204C136.204 32.0674 136.218 31.3105 136.197 30.556C136.19 30.2936 136.277 30.1951 136.523 30.1248C137.453 29.86 138.377 29.5742 139.349 29.2812V32.8477H142.857V35.2566H139.372C139.365 35.3949 139.358 35.498 139.358 35.6011C139.358 37.8061 139.347 40.0088 139.365 42.2139C139.37 42.6943 139.424 43.1863 139.548 43.648C139.785 44.5244 140.366 44.9368 141.273 44.9227C141.723 44.9157 142.17 44.8595 142.644 44.822H142.641Z" fill="white"/>
<path d="M161.527 32.8864H164.243C164.285 33.8003 164.328 34.7001 164.37 35.6C165.295 33.5308 166.746 32.3475 169.148 32.6263V35.6632C168.569 35.6632 167.988 35.5836 167.439 35.6796C166.022 35.9257 165.286 36.9216 164.946 38.2315C164.808 38.7658 164.763 39.3352 164.759 39.8882C164.74 42.2081 164.749 44.5279 164.749 46.8501V47.2532H161.527V32.8888V32.8864Z" fill="white"/>
<path d="M63.4912 19.8865V9.4378C63.5685 9.43077 63.6388 9.41906 63.7091 9.41906C65.0284 9.41906 66.3453 9.40031 67.6646 9.43546C68.2176 9.44952 68.7871 9.51279 69.3119 9.67448C70.6687 10.0892 71.4607 11.0969 71.8357 12.4114C72.3887 14.3447 72.3278 16.2521 71.2991 18.04C70.6078 19.2398 69.4783 19.7905 68.1473 19.8561C66.6312 19.9311 65.1104 19.9006 63.5943 19.9147C63.5662 19.9147 63.5357 19.8983 63.4912 19.8842V19.8865ZM64.8761 18.6141C65.9634 18.6141 67.0272 18.6587 68.0841 18.6024C69.1877 18.5438 69.9564 17.9416 70.3383 16.9012C70.8562 15.4905 70.896 14.0471 70.432 12.6247C70.0852 11.5632 69.3682 10.8039 68.1895 10.7196C67.1093 10.6423 66.022 10.6727 64.937 10.6587C64.9206 10.6587 64.9019 10.6797 64.8761 10.6985V18.6118V18.6141Z" fill="white"/>
<path d="M42.4796 9.36142C42.9811 13.8113 39.124 18.43 34.8756 18.1347C33.9336 14.5893 38.5569 9.23957 42.4796 9.36142Z" fill="white"/>
<path d="M85.8068 19.1789V22.8157H84.5508V12.3295H85.699V13.2317C85.7693 13.1754 85.8044 13.159 85.8255 13.1286C86.955 11.582 89.6146 11.8819 90.5262 13.623C91.3838 15.2563 91.3791 16.9341 90.4863 18.5533C89.8372 19.7296 88.3914 20.3248 87.1565 19.9967C86.9058 19.9311 86.6621 19.8116 86.4395 19.6781C86.2286 19.5515 86.0458 19.3734 85.8044 19.1789H85.8068ZM89.9005 16.0764C89.7623 15.4836 89.692 14.879 89.4764 14.3307C89.1413 13.4777 88.3329 13.0254 87.5104 13.1731C86.7207 13.3137 86.2239 13.8456 85.9568 14.5626C85.5748 15.5937 85.5748 16.6529 85.9333 17.6933C86.2122 18.5017 86.9011 19.0008 87.6838 19.0243C88.436 19.0477 89.1835 18.5861 89.4787 17.8058C89.6826 17.2645 89.7599 16.6716 89.8982 16.0764H89.9005Z" fill="white"/>
<path d="M145.176 14.6452C144.776 14.5936 144.382 14.5397 143.946 14.4835C144.094 13.6657 144.431 12.9791 145.193 12.6206C145.652 12.405 146.163 12.255 146.667 12.1917C147.506 12.0816 148.349 12.1027 149.151 12.4565C149.811 12.7471 150.17 13.2533 150.254 13.9562C150.294 14.289 150.303 14.6288 150.306 14.9662C150.315 15.9035 150.306 16.8432 150.318 17.7805C150.327 18.4952 150.318 19.2169 150.725 19.9246C150.273 19.9246 149.879 19.9316 149.486 19.9176C149.42 19.9152 149.326 19.8192 149.301 19.7489C149.219 19.5216 149.16 19.2872 149.085 19.0248C148.888 19.1654 148.698 19.306 148.504 19.4349C147.492 20.1004 146.393 20.255 145.237 19.941C144.401 19.7137 143.869 19.1466 143.74 18.282C143.604 17.3564 143.93 16.6042 144.731 16.0863C145.385 15.6645 146.142 15.627 146.878 15.5098C147.492 15.4138 148.098 15.2872 148.712 15.1841C148.947 15.1443 149.008 15.0178 149.008 14.7928C149.008 13.8039 148.562 13.3071 147.576 13.2345C147.283 13.2134 146.985 13.2158 146.692 13.2369C146.006 13.2907 145.528 13.6305 145.303 14.296C145.265 14.4038 145.226 14.5116 145.174 14.6475L145.176 14.6452ZM149.038 16.1238C148.614 16.2316 148.281 16.3277 147.944 16.398C147.295 16.5315 146.636 16.6229 145.992 16.7776C145.394 16.9228 145.069 17.3657 145.085 17.9117C145.101 18.4577 145.446 18.8842 146.046 19.0037C146.371 19.0693 146.718 19.074 147.049 19.0435C147.939 18.9568 148.717 18.3476 148.883 17.5813C148.982 17.1244 148.984 16.6463 149.036 16.1238H149.038Z" fill="white"/>
<path d="M121.399 16.4371C121.357 17.6393 122.046 18.6586 123.056 18.9374C124.206 19.2561 124.94 18.8531 125.708 17.4635C126.123 17.5151 126.547 17.569 126.971 17.6229C126.826 18.7265 125.828 19.7295 124.628 19.9825C123.97 20.1208 123.306 20.1208 122.65 19.9685C121.139 19.617 120.197 18.443 120.066 16.7347C120.012 16.0271 120.042 15.3241 120.239 14.6352C120.71 12.9714 122.053 12.0575 123.911 12.1466C125.434 12.2192 126.676 13.3627 126.948 14.9702C127.016 15.3639 127.025 15.767 127.053 16.1653C127.06 16.245 127.037 16.3294 127.023 16.4371H121.401H121.399ZM125.664 15.3616C125.678 14.1103 124.799 13.194 123.597 13.1964C122.395 13.1987 121.432 14.1712 121.469 15.3616H125.664Z" fill="white"/>
<path d="M92.1596 16.2085C92.2346 15.6438 92.2627 15.1986 92.3588 14.7697C92.6868 13.331 93.678 12.4288 95.1637 12.1804C96.7665 11.9109 98.3201 12.6397 98.934 14.0363C99.548 15.4352 99.5222 16.881 98.9036 18.2683C98.4349 19.3228 97.5117 19.8641 96.4009 20.0304C94.4794 20.3163 93.0008 19.4141 92.4947 17.884C92.3049 17.3122 92.2533 16.6959 92.1572 16.2062L92.1596 16.2085ZM93.4718 16.1429C93.5749 16.635 93.6312 17.1529 93.7952 17.6356C94.0904 18.5003 94.845 19.0088 95.7472 19.0275C96.6235 19.0462 97.4132 18.5401 97.7366 17.6848C98.1232 16.6655 98.1373 15.618 97.7624 14.5916C97.4414 13.7106 96.6493 13.195 95.7354 13.2091C94.8122 13.2255 94.0576 13.7504 93.7647 14.6596C93.6148 15.1236 93.5702 15.6227 93.4695 16.1406L93.4718 16.1429Z" fill="white"/>
<path d="M82.69 14.2644C82.2729 14.323 81.8793 14.3769 81.4668 14.4355C81.4364 14.3441 81.4083 14.2691 81.3848 14.1918C81.2372 13.7231 80.9326 13.4115 80.4569 13.2849C79.9156 13.142 79.3672 13.1537 78.8353 13.3248C78.4768 13.4396 78.2026 13.6692 78.1487 14.0723C78.0925 14.4917 78.3432 14.8315 78.8517 14.9885C79.5149 15.1924 80.1874 15.3705 80.8552 15.565C81.1177 15.6423 81.3755 15.736 81.6356 15.8227C83.3063 16.3781 83.2595 18.2012 82.4417 19.1174C81.9777 19.6376 81.3825 19.9047 80.7076 20.0125C79.9367 20.1344 79.1704 20.1133 78.4252 19.8672C77.3801 19.5204 76.8857 18.7261 76.6748 17.6481C77.1036 17.5802 77.509 17.5146 77.9285 17.4466C77.9706 17.5989 77.9964 17.7208 78.0363 17.8379C78.2003 18.3371 78.5096 18.705 79.0158 18.8784C79.6133 19.0822 80.2226 19.0893 80.8154 18.8831C81.0427 18.8034 81.2653 18.6393 81.4247 18.4566C81.8699 17.9364 81.6988 17.2545 81.0568 17.0272C80.4217 16.8046 79.7633 16.6499 79.1189 16.4554C78.7955 16.3593 78.4745 16.2586 78.1605 16.1367C77.4059 15.8415 76.9537 15.2955 76.8974 14.4777C76.8388 13.6013 77.2114 12.9123 77.9894 12.5327C79.222 11.9305 80.485 11.9844 81.6988 12.6077C82.3456 12.9381 82.5822 13.5544 82.6877 14.2644H82.69Z" fill="white"/>
<path d="M105.755 19.9237V19.537C105.755 18.2084 105.755 16.8798 105.755 15.5488C105.755 15.4011 105.755 15.2535 105.753 15.1059C105.734 13.885 105.263 13.3109 104.235 13.257C103.159 13.2008 102.348 13.8803 102.212 14.9653C102.173 15.2793 102.154 15.5956 102.152 15.912C102.144 17.1258 102.149 18.3373 102.149 19.5511V19.9073H100.896V12.3361H102.013V13.2851C102.046 13.3039 102.077 13.3203 102.109 13.339C102.123 13.2992 102.126 13.25 102.149 13.2172C103.019 12.0502 104.521 11.9706 105.549 12.3291C106.496 12.6571 106.976 13.3554 107.002 14.3068C107.054 16.0994 107.03 17.8921 107.044 19.6847C107.044 19.8581 106.99 19.9307 106.808 19.926C106.473 19.9143 106.135 19.9237 105.751 19.9237H105.755Z" fill="white"/>
<path d="M137.242 19.9042H136.007V12.3307H137.122V13.2633L137.223 13.3359C137.258 13.268 137.284 13.1906 137.331 13.1321C138.341 11.8479 140.318 11.9182 141.343 12.6845C141.839 13.0571 142.097 13.6007 142.106 14.1889C142.142 16.0846 142.12 17.9803 142.12 19.8995H140.874V19.5527C140.874 18.1819 140.876 16.811 140.874 15.4402C140.874 15.166 140.86 14.8919 140.827 14.6201C140.726 13.7343 140.14 13.2328 139.243 13.2516C138.181 13.275 137.464 13.8889 137.338 14.9411C137.272 15.4941 137.277 16.0565 137.272 16.6142C137.263 17.6804 137.268 18.7442 137.265 19.8104C137.265 19.8315 137.256 19.8503 137.242 19.9065V19.9042Z" fill="white"/>
<path d="M115.822 18.314C115.899 18.0773 115.967 17.8594 116.044 17.6461C116.656 15.9519 117.274 14.2624 117.879 12.5659C117.947 12.3784 118.029 12.294 118.235 12.3058C118.57 12.3222 118.905 12.3104 119.276 12.3104C119.245 12.4206 119.231 12.4979 119.203 12.5729C118.308 14.9373 117.41 17.2993 116.522 19.6637C116.445 19.8676 116.349 19.9308 116.136 19.9308C115.222 19.9261 115.222 19.9355 114.894 19.0732C114.078 16.9267 113.263 14.7826 112.447 12.6362C112.414 12.5471 112.382 12.4604 112.33 12.3175C112.771 12.3175 113.188 12.3058 113.6 12.3292C113.666 12.3339 113.745 12.4885 113.781 12.5893C114.458 14.4827 115.13 16.3761 115.822 18.3163V18.314Z" fill="white"/>
<path d="M128.628 9.4375H129.882V19.9003H128.628V9.4375Z" fill="white"/>
<path d="M75.1912 19.904H73.9375V12.3281H75.1912V19.904Z" fill="white"/>
<path d="M110.741 19.9095H109.509V12.3359H110.741V19.9095Z" fill="white"/>
<path d="M109.437 11.3287C109.734 10.703 110.015 10.1031 110.306 9.51261C110.339 9.44466 110.439 9.36967 110.51 9.36733C111 9.35561 111.492 9.3603 112.059 9.3603C111.794 9.69773 111.571 9.98127 111.349 10.2648C111.206 10.4476 111.03 10.6116 110.927 10.8131C110.603 11.4529 110.057 11.4247 109.437 11.3287Z" fill="white"/>
<path d="M73.9375 10.8693V9.4375H75.1935V10.8693H73.9375Z" fill="white"/>
<path d="M86.5498 40.2185C86.6459 39.396 86.6482 38.5501 86.8521 37.7557C87.4731 35.3515 90.3248 34.3251 92.2323 35.7803C93.0876 36.4318 93.5258 37.3456 93.7437 38.372C94.0507 39.8248 94.0038 41.2683 93.4625 42.6626C92.9845 43.8905 92.169 44.7739 90.8005 45.0152C88.5955 45.4042 86.7185 43.8764 86.6412 41.6222C86.6248 41.1582 86.6412 40.6942 86.6412 40.2302C86.6107 40.2279 86.5803 40.2232 86.5498 40.2209V40.2185Z" fill="black"/>
<path d="M103.109 40.2307C103.208 39.3989 103.22 38.5436 103.426 37.7398C103.937 35.741 106.022 34.6467 107.927 35.3122C108.93 35.6613 109.591 36.3854 109.973 37.3414C110.713 39.195 110.702 41.0767 109.917 42.9091C109.157 44.6783 107.501 45.4328 105.657 44.9407C104.354 44.5939 103.309 43.2583 103.222 41.7937C103.191 41.2782 103.217 40.7603 103.217 40.2448C103.182 40.2424 103.145 40.2378 103.109 40.2354V40.2307Z" fill="black"/>
<path d="M74.7789 38.9217H69.5322C70.4063 35.9504 71.2803 32.9862 72.1075 30.1719C72.9628 32.9745 73.8673 35.9317 74.7789 38.9217Z" fill="black"/>
<path d="M155.443 40.0192C155.443 41.4135 155.129 42.714 154.29 43.8528C153.322 45.1698 151.642 45.5822 150.206 44.8651C149.446 44.4855 148.919 43.8693 148.584 43.1124C147.616 40.919 147.633 38.7304 148.797 36.6121C149.702 34.9647 151.356 34.6578 152.755 35.0725C153.767 35.3725 154.367 36.1387 154.812 37.0479C155.272 37.9852 155.441 38.9835 155.441 40.0192H155.443Z" fill="black"/>
<path d="M180.471 38.541H173.765C173.819 38.2598 173.856 37.995 173.917 37.7349C174.086 37.0249 174.416 36.3946 174.894 35.8462C175.766 34.848 176.872 34.5738 178.128 34.8714C179.398 35.1737 179.998 36.1181 180.298 37.2967C180.396 37.6881 180.41 38.1005 180.469 38.5387L180.471 38.541Z" fill="black"/>
<path d="M64.877 18.6172V10.7039C64.9051 10.6852 64.9215 10.6641 64.9379 10.6641C66.0228 10.6781 67.1101 10.6477 68.1904 10.725C69.369 10.8093 70.0861 11.5686 70.4329 12.6301C70.8969 14.0525 70.857 15.4959 70.3392 16.9066C69.9572 17.947 69.1886 18.5492 68.0849 18.6078C67.0281 18.6641 65.9642 18.6195 64.877 18.6195V18.6172Z" fill="black"/>
<path d="M89.9028 16.0794C89.7622 16.6769 89.6872 17.2675 89.4833 17.8088C89.1904 18.5891 88.4405 19.0507 87.6883 19.0273C86.9057 19.0038 86.2168 18.5047 85.9379 17.6963C85.5794 16.6559 85.5794 15.5967 85.9613 14.5656C86.2261 13.8486 86.7253 13.3167 87.5149 13.1761C88.3374 13.0284 89.1459 13.4807 89.481 14.3337C89.6965 14.882 89.7669 15.4866 89.9051 16.0794H89.9028Z" fill="black"/>
<path d="M149.038 16.1172C148.987 16.6397 148.984 17.1178 148.886 17.5747C148.72 18.341 147.939 18.9502 147.051 19.0369C146.721 19.0697 146.372 19.0627 146.048 18.9971C145.448 18.8776 145.102 18.4511 145.088 17.9051C145.071 17.3591 145.397 16.9163 145.994 16.771C146.639 16.6163 147.297 16.5226 147.946 16.3914C148.284 16.3211 148.617 16.225 149.041 16.1172H149.038Z" fill="black"/>
<path d="M125.666 15.3683H121.472C121.434 14.1779 122.397 13.2055 123.599 13.2031C124.802 13.2008 125.683 14.1147 125.666 15.3683Z" fill="black"/>
<path d="M93.4736 16.1427C93.5721 15.6248 93.6189 15.128 93.7689 14.6617C94.0618 13.7525 94.8163 13.2253 95.7396 13.2112C96.6511 13.1972 97.4455 13.7103 97.7665 14.5938C98.1415 15.6201 98.1251 16.6652 97.7408 17.6869C97.4174 18.5422 96.6254 19.0484 95.7513 19.0296C94.8491 19.0085 94.0946 18.5024 93.7994 17.6377C93.6353 17.1573 93.5791 16.6371 93.476 16.145L93.4736 16.1427Z" fill="black"/>
</svg>
